<svg xmlns="http://www.w3.org/2000/svg" viewBox="0 0 512 512" width="100%" height="100%">
  <rect width="512" height="512" fill="#FBF7EE"/>

  <rect x="42" y="42" width="428" height="428" rx="115" fill="#D2A976"/>
  
  <rect x="50" y="50" width="412" height="412" rx="105" fill="none" stroke="#F4E6D3" stroke-width="6" opacity="0.9"/>

  <path d="M 158 171 
           H 201 
           V 227 
           H 99 
           V 283 
           H 201 
           V 354
           L 158 333
           Z" 
        fill="#FBF7EE"/>
        
  <path d="M 211 227 
           H 288 
           V 305 
           C 288 332, 274 354, 250 354
           L 211 333
           Z" 
        fill="#FBF7EE"/>

  <path d="M 233 218 
           C 229 200, 230 178, 243 166
           C 249 161, 259 160, 266 168" 
        fill="none" stroke="#FBF7EE" stroke-width="5.5" stroke-linecap="round"/>
        
  <path d="M 276 218
           C 281 210, 290 196, 296 186
           C 299 181, 296 173, 289 174" 
        fill="none" stroke="#FBF7EE" stroke-width="5.5" stroke-linecap="round"/>
  
  <circle cx="267" cy="169" r="4.5" fill="#FBF7EE"/>
  
  <circle cx="288" cy="174" r="4.5" fill="#FBF7EE"/>

  <text x="305" y="254" font-family="'Segoe UI', Roboto, Helvetica, Arial, sans-serif" font-size="34" font-weight="700" fill="#4B3319" letter-spacing="0.5">SAKU</text>
  <text x="305" y="293" font-family="'Segoe UI', Roboto, Helvetica, Arial, sans-serif" font-size="34" font-weight="700" fill="#4B3319" letter-spacing="0.5">MEDIKA</text>
</svg>
